<svg version="1.1" xmlns="http://www.w3.org/2000/svg" viewBox="0 0 456 173.56158726601535" width="912" height="347.1231745320307">
  <!-- svg-source:excalidraw -->
  
  <defs>
    <style>
      @font-face {
        font-family: "Virgil";
        src: url("https://excalidraw.com/Virgil.woff2");
      }
      @font-face {
        font-family: "Cascadia";
        src: url("https://excalidraw.com/Cascadia.woff2");
      }
    </style>
  </defs>
  <rect x="0" y="0" width="456" height="173.56158726601535" fill="#ffffff"></rect><g stroke-linecap="round" transform="translate(341.80488013711465 65.43841273398465) rotate(0 49.19511986288535 48.249059865522185)"><path d="M1.29 0.51 L100.25 -1.21 L99.6 97.41 L0.21 97.97" stroke="none" stroke-width="0" fill="#eeeeee"></path><path d="M1.62 -0.11 C25.62 1.67, 48.68 -1.18, 99.68 -0.94 M0.42 0.77 C38.3 1.48, 77.49 0.59, 98.96 0.01 M99.15 -0.34 C98.82 38.3, 99.74 74.33, 100.24 98.25 M99.07 -0.54 C97.57 29.13, 98.83 58.1, 98.65 96.7 M97.31 97.14 C76.31 97.54, 59.67 96.86, -0.46 98.16 M99.26 96.26 C76.12 94.8, 53.74 95.08, 0.35 97.2 M-0.25 98.26 C1.22 69.25, 1.45 40.05, -0.31 0.15 M-0.96 96.33 C-0.42 71.22, 0.66 46.14, -0.27 -0.25" stroke="#000000" stroke-width="1" fill="none"></path></g><g stroke-linecap="round" transform="translate(380.9103984108847 72.46762666678279) rotate(0 10.470341271721338 10.470341271721324)"><path d="M5.98 1.89 C7.73 0.74, 10.57 -1.04, 12.63 -0.7 C14.69 -0.35, 16.82 2, 18.35 3.97 C19.88 5.93, 21.78 8.77, 21.81 11.08 C21.85 13.38, 20.26 16.2, 18.55 17.81 C16.85 19.41, 13.86 20.51, 11.59 20.7 C9.32 20.89, 6.81 20.23, 4.93 18.95 C3.05 17.68, 1.17 15.16, 0.32 13.05 C-0.53 10.95, -1.2 8.34, -0.17 6.3 C0.86 4.26, 4.94 1.69, 6.49 0.82 C8.04 -0.05, 9.01 1.01, 9.12 1.09 M12.88 1.45 C15 1.79, 18.57 3.28, 20.08 5.16 C21.59 7.03, 22.52 10.66, 21.93 12.67 C21.34 14.69, 18.53 16.08, 16.52 17.24 C14.5 18.41, 12.11 19.56, 9.82 19.66 C7.54 19.76, 4.65 18.86, 2.8 17.84 C0.95 16.83, -1.06 15.51, -1.28 13.57 C-1.5 11.64, 0.33 8.39, 1.49 6.22 C2.64 4.06, 3.49 1.7, 5.64 0.57 C7.79 -0.56, 13.01 -0.73, 14.4 -0.55 C15.79 -0.36, 14.06 1.42, 13.99 1.66" stroke="none" stroke-width="0" fill="#868e96"></path><path d="M12.38 0.94 C14.26 1.52, 16.96 3.63, 18.44 5.17 C19.92 6.71, 21.24 7.99, 21.25 10.21 C21.25 12.43, 20.07 16.61, 18.46 18.48 C16.84 20.35, 13.74 21.37, 11.58 21.43 C9.41 21.49, 7.22 20.18, 5.45 18.84 C3.69 17.51, 1.61 15.51, 0.99 13.41 C0.38 11.31, 1.06 8.24, 1.76 6.25 C2.46 4.25, 3.06 2.32, 5.19 1.46 C7.31 0.61, 12.61 0.91, 14.51 1.11 C16.41 1.3, 16.68 2.34, 16.59 2.61 M15.96 2 C17.81 2.75, 18.33 3.27, 19.15 5.33 C19.98 7.39, 21.28 12.01, 20.9 14.36 C20.52 16.71, 18.71 18.59, 16.87 19.44 C15.03 20.29, 12.22 19.82, 9.84 19.48 C7.46 19.15, 4.37 18.7, 2.6 17.43 C0.83 16.16, -0.42 13.84, -0.77 11.85 C-1.12 9.85, -1.13 7.28, 0.5 5.44 C2.14 3.61, 6.71 1.38, 9.05 0.84 C11.39 0.3, 13.78 2.24, 14.56 2.23 C15.35 2.23, 13.96 0.65, 13.75 0.82" stroke="#495057" stroke-width="1" fill="none"></path></g><g stroke-linecap="round" transform="translate(384.3370555543588 75.70391396894985) rotate(0 7.138869048900915 7.138869048900887)"><path d="M9.2 0.03 C10.6 0.09, 10.92 0.87, 11.74 2.23 C12.57 3.58, 14 6.49, 14.15 8.15 C14.31 9.81, 13.62 11.22, 12.68 12.19 C11.74 13.15, 10.08 13.74, 8.52 13.93 C6.96 14.13, 4.72 14.11, 3.31 13.33 C1.89 12.56, 0.6 10.91, 0.03 9.29 C-0.53 7.67, -0.68 5.11, -0.1 3.62 C0.48 2.12, 1.99 0.8, 3.51 0.31 C5.04 -0.17, 8 0.72, 9.03 0.69 C10.07 0.66, 9.84 -0.01, 9.73 0.13 M8.95 0.74 C10.2 1.17, 11.55 2.54, 12.54 3.4 C13.54 4.26, 15.06 4.72, 14.93 5.91 C14.8 7.1, 13 9.36, 11.75 10.54 C10.5 11.71, 8.89 12.71, 7.43 12.95 C5.98 13.19, 4.02 12.47, 3.04 11.99 C2.06 11.52, 1.9 11.44, 1.57 10.11 C1.24 8.79, 0.81 5.42, 1.07 4.03 C1.33 2.63, 2.14 2.36, 3.12 1.75 C4.1 1.13, 5.99 0.49, 6.96 0.32 C7.93 0.15, 8.89 0.8, 8.95 0.72" stroke="none" stroke-width="0" fill="#ffffff"></path><path d="M10.74 0.17 C12.3 0.84, 14.08 2.86, 14.48 4.39 C14.87 5.91, 13.52 7.92, 13.11 9.34 C12.71 10.76, 13.06 11.95, 12.07 12.91 C11.07 13.86, 8.85 15.07, 7.14 15.05 C5.43 15.03, 2.99 13.86, 1.8 12.81 C0.62 11.75, 0.14 10.43, 0.04 8.71 C-0.05 6.98, 0.31 3.89, 1.24 2.46 C2.16 1.02, 3.9 0.21, 5.6 0.09 C7.31 -0.03, 10.26 1.41, 11.47 1.73 C12.67 2.05, 12.78 1.82, 12.83 2 M8.14 -0.81 C9.56 -1.03, 9.79 0.79, 10.99 1.98 C12.19 3.16, 14.88 4.79, 15.33 6.29 C15.79 7.79, 14.9 9.81, 13.71 11 C12.52 12.18, 9.75 13.05, 8.17 13.39 C6.6 13.73, 5.4 13.72, 4.27 13.04 C3.15 12.36, 1.97 10.29, 1.44 9.32 C0.91 8.34, 0.83 8.52, 1.1 7.18 C1.36 5.85, 1.82 2.71, 3.03 1.33 C4.24 -0.04, 7.75 -0.68, 8.37 -1.07 C8.99 -1.45, 6.75 -1.21, 6.76 -0.98" stroke="#495057" stroke-width="1" fill="none"></path></g><g stroke-linecap="round" transform="translate(375.9607825369824 87.12610444719172) rotate(0 15.039217463017906 13.421073811933667)"><path d="M8.33 -0.11 L24.33 1.71 L27.75 0.54 L31.37 5.77 L31.87 20.79 L26.52 26 L24.92 26.76 L7.81 28.43 L1 26.31 L0.01 21.89 L0.39 2.49 L2.44 1.34 L7.16 0.87" stroke="none" stroke-width="0" fill="#868e96"></path><path d="M6.71 0 M6.71 0 C14.31 -0.16, 18.4 1.01, 23.37 0 M6.71 0 C13.01 0.73, 19.18 0.29, 23.37 0 M23.37 0 C28.24 -1.89, 29.47 1.66, 30.08 6.71 M23.37 0 C26.6 0.73, 27.93 3.76, 30.08 6.71 M30.08 6.71 C31.24 10.92, 29.8 16.04, 30.08 20.13 M30.08 6.71 C29.4 12.17, 29.59 17.34, 30.08 20.13 M30.08 20.13 C31.48 24.4, 25.95 26, 23.37 26.84 M30.08 20.13 C29.79 26.63, 28.2 27.67, 23.37 26.84 M23.37 26.84 C18.05 26.23, 12.19 25.86, 6.71 26.84 M23.37 26.84 C20.18 27.16, 17.17 26.52, 6.71 26.84 M6.71 26.84 C1.73 28.13, 0.51 26.47, 0 20.13 M6.71 26.84 C0.84 28.23, 1.05 24.85, 0 20.13 M0 20.13 C-1.01 14.29, -1.2 9.07, 0 6.71 M0 20.13 C0.23 17.18, -0.31 13.48, 0 6.71 M0 6.71 C0.82 0.79, 2.59 1.23, 6.71 0 M0 6.71 C0.8 1.24, 0.81 -0.94, 6.71 0" stroke="#495057" stroke-width="1" fill="none"></path></g><g stroke-linecap="round" transform="translate(380.72002856958306 80.84389968415991) rotate(0 1.8085134923882151 4.18813650868853)"><path d="M0.9 0 L2.71 0 L3.62 0.9 L3.62 7.47 L2.71 8.38 L0.9 8.38 L0 7.47 L0 0.9 L0.9 0" stroke="none" stroke-width="0" fill="#868e96"></path><path d="M0.9 0 M0.9 0 C1.61 0, 2.31 0, 2.71 0 M0.9 0 C1.57 0, 2.24 0, 2.71 0 M2.71 0 C3.32 0, 3.62 0.3, 3.62 0.9 M2.71 0 C3.32 0, 3.62 0.3, 3.62 0.9 M3.62 0.9 C3.62 2.25, 3.62 3.6, 3.62 7.47 M3.62 0.9 C3.62 3.43, 3.62 5.96, 3.62 7.47 M3.62 7.47 C3.62 8.07, 3.32 8.38, 2.71 8.38 M3.62 7.47 C3.62 8.07, 3.32 8.38, 2.71 8.38 M2.71 8.38 C2.19 8.38, 1.66 8.38, 0.9 8.38 M2.71 8.38 C2.12 8.38, 1.53 8.38, 0.9 8.38 M0.9 8.38 C0.3 8.38, 0 8.07, 0 7.47 M0.9 8.38 C0.3 8.38, 0 8.07, 0 7.47 M0 7.47 C0 5.08, 0 2.68, 0 0.9 M0 7.47 C0 5.02, 0 2.56, 0 0.9 M0 0.9 C0 0.3, 0.3 0, 0.9 0 M0 0.9 C0 0.3, 0.3 0, 0.9 0" stroke="#868e96" stroke-width="1" fill="none"></path></g><g stroke-linecap="round" transform="translate(398.42442381085857 80.84389968415991) rotate(0 1.8085134923882151 4.949615873904619)"><path d="M0.9 0 L2.71 0 L3.62 0.9 L3.62 8.99 L2.71 9.9 L0.23 9.67 L0 8.99 L0 0.9 L0.9 0" stroke="none" stroke-width="0" fill="#868e96"></path><path d="M0.9 0 M0.9 0 C1.44 0, 1.98 0, 2.71 0 M0.9 0 C1.4 0, 1.9 0, 2.71 0 M2.71 0 C3.32 0, 3.62 0.3, 3.62 0.9 M2.71 0 C3.32 0, 3.62 0.3, 3.62 0.9 M3.62 0.9 C3.62 3.09, 3.62 5.27, 3.62 8.99 M3.62 0.9 C3.62 3.59, 3.62 6.28, 3.62 8.99 M3.62 8.99 C3.62 9.6, 3.32 9.9, 2.71 9.9 M3.62 8.99 C3.62 9.6, 3.32 9.9, 2.71 9.9 M2.71 9.9 C2.34 9.9, 1.97 9.9, 0.9 9.9 M2.71 9.9 C2.22 9.9, 1.72 9.9, 0.9 9.9 M0.9 9.9 C0.3 9.9, 0 9.6, 0 8.99 M0.9 9.9 C0.3 9.9, 0 9.6, 0 8.99 M0 8.99 C0 6.36, 0 3.73, 0 0.9 M0 8.99 C0 6.21, 0 3.43, 0 0.9 M0 0.9 C0 0.3, 0.3 0, 0.9 0 M0 0.9 C0 0.3, 0.3 0, 0.9 0" stroke="#868e96" stroke-width="1" fill="none"></path></g><g stroke-linecap="round" transform="translate(393.7603626989062 81.7481564303535) rotate(0 2.1892531749962814 2.522400397278318)"><path d="M0 0 L4.38 0 L4.38 5.04 L0 5.04" stroke="none" stroke-width="0" fill="#ffffff"></path><path d="M0 0 C1.69 0, 3.37 0, 4.38 0 M0 0 C1.56 0, 3.11 0, 4.38 0 M4.38 0 C4.38 1.73, 4.38 3.47, 4.38 5.04 M4.38 0 C4.38 1.62, 4.38 3.24, 4.38 5.04 M4.38 5.04 C2.78 5.04, 1.17 5.04, 0 5.04 M4.38 5.04 C3.49 5.04, 2.59 5.04, 0 5.04 M0 5.04 C0 3.35, 0 1.65, 0 0 M0 5.04 C0 3.4, 0 1.76, 0 0" stroke="#ffffff" stroke-width="1" fill="none"></path></g><g stroke-linecap="round" transform="translate(384.62261031631533 81.84334135100636) rotate(0 0.7614793652160756 2.522400397278318)"><path d="M0 0 L1.52 0 L1.52 5.04 L0 5.04" stroke="none" stroke-width="0" fill="#ffffff"></path><path d="M0 0 C0.41 0, 0.81 0, 1.52 0 M0 0 C0.58 0, 1.16 0, 1.52 0 M1.52 0 C1.52 1.86, 1.52 3.72, 1.52 5.04 M1.52 0 C1.52 1.91, 1.52 3.81, 1.52 5.04 M1.52 5.04 C0.94 5.04, 0.35 5.04, 0 5.04 M1.52 5.04 C1.01 5.04, 0.49 5.04, 0 5.04 M0 5.04 C0 3.4, 0 1.75, 0 0 M0 5.04 C0 3.28, 0 1.51, 0 0" stroke="#ffffff" stroke-width="1" fill="none"></path></g><g stroke-linecap="round"><g transform="translate(401.9384787798351 87.63677163250014) rotate(0 0.23870508164003468 -2.841800845582256)"><path d="M0.55 0.2 C-0.61 -1.22, 0.43 -2.98, 0.34 -5.61 M0.27 0 C-0.23 -1.51, -0.09 -3.18, 0.13 -5.88" stroke="#000000" stroke-width="1" fill="none"></path></g></g><g stroke-linecap="round"><g transform="translate(380.60092995424634 87.34945094435926) rotate(0 0.23948694676340665 -3.246641208880092)"><path d="M0.2 -0.57 C0.28 -1.75, 0 -4.11, 0.48 -6.3 M0 -0.2 C0.12 -2.23, 0.07 -4.22, 0.21 -6.17" stroke="#000000" stroke-width="1" fill="none"></path></g></g><g stroke-linecap="round"><g transform="translate(398.21716260759945 87.0985048945443) rotate(0 -0.1908243659385107 -2.604071713049592)"><path d="M-0.54 0.24 C0.39 -1.47, 0.26 -2.44, -0.19 -5.38 M-0.18 0.11 C-0.1 -1.65, 0.07 -3.24, -0.07 -5.45" stroke="#000000" stroke-width="1" fill="none"></path></g></g><g stroke-linecap="round"><g transform="translate(384.5843589340998 87.07806617320608) rotate(0 0.22154640916119206 -2.63241585120943)"><path d="M0.24 0.44 C-0.04 -1.91, 0.43 -4.64, 0.33 -5.71 M0.11 -0.05 C0.06 -2.09, 0.2 -4.5, 0.26 -5.46" stroke="#000000" stroke-width="1" fill="none"></path></g></g><g stroke-linecap="round" transform="translate(382.3280461652794 98.66534699860819) rotate(0 8.842071565248602 6.818885698623916)"><path d="M10.27 0.19 C11.96 0.36, 14.15 1.34, 15.29 2.29 C16.43 3.25, 17.09 4.5, 17.11 5.9 C17.13 7.29, 16.5 9.29, 15.42 10.65 C14.33 12.01, 12.3 13.74, 10.58 14.04 C8.86 14.34, 6.82 13.15, 5.1 12.44 C3.38 11.73, 0.98 10.94, 0.27 9.76 C-0.45 8.58, 0.21 6.76, 0.8 5.38 C1.4 4.01, 1.88 2.29, 3.86 1.5 C5.83 0.7, 10.89 0.58, 12.66 0.62 C14.42 0.66, 14.69 1.77, 14.46 1.74 M5.33 -1.17 C7.4 -1.44, 11.2 0.09, 13.22 0.73 C15.23 1.37, 16.74 1.3, 17.42 2.66 C18.1 4.02, 18.03 7.25, 17.32 8.89 C16.61 10.53, 14.48 11.61, 13.16 12.48 C11.84 13.36, 11.23 14.41, 9.4 14.16 C7.58 13.9, 3.89 11.91, 2.24 10.93 C0.58 9.95, -0.41 9.34, -0.53 8.26 C-0.65 7.19, 0.26 5.57, 1.51 4.47 C2.75 3.37, 6.02 2.16, 6.93 1.64 C7.84 1.13, 7.05 1.39, 6.97 1.38" stroke="none" stroke-width="0" fill="#ced4da"></path><path d="M8.32 0.57 C10.03 0.47, 12.86 1.67, 14.39 2.38 C15.92 3.1, 17.07 3.59, 17.5 4.85 C17.93 6.11, 17.84 8.48, 16.97 9.94 C16.09 11.4, 13.98 13.1, 12.26 13.61 C10.54 14.13, 8.35 13.41, 6.67 13.01 C5 12.62, 3.3 12.49, 2.2 11.22 C1.11 9.96, -0.15 6.9, 0.1 5.42 C0.35 3.94, 2 3.31, 3.72 2.36 C5.43 1.41, 8.81 -0.18, 10.39 -0.29 C11.97 -0.4, 13.1 1.49, 13.2 1.73 M9.29 -0.78 C11.41 -0.88, 14.09 -0.73, 15.65 0.66 C17.21 2.05, 18.51 5.95, 18.65 7.58 C18.79 9.22, 17.57 9.66, 16.51 10.45 C15.44 11.25, 14.24 12.13, 12.27 12.36 C10.29 12.59, 6.34 12.36, 4.64 11.84 C2.95 11.33, 2.75 10.65, 2.09 9.26 C1.43 7.88, 0.31 5.05, 0.7 3.53 C1.09 2.01, 2.85 0.56, 4.44 0.16 C6.03 -0.25, 9.4 1.32, 10.25 1.08 C11.11 0.85, 9.76 -1.15, 9.55 -1.25" stroke="#000000" stroke-width="1" fill="none"></path></g><g stroke-linecap="round" transform="translate(388.0020723510024 91.35038712828015) rotate(0 3.1585602137178626 3.1585602137178483)"><path d="M3.66 -0.33 C4.32 -0.35, 5.04 -0.07, 5.33 0.46 C5.61 0.99, 5.39 2.05, 5.35 2.87 C5.31 3.68, 5.25 4.66, 5.08 5.35 C4.91 6.03, 4.94 6.9, 4.33 6.96 C3.72 7.02, 2 6.1, 1.42 5.7 C0.85 5.31, 0.94 5.3, 0.88 4.61 C0.82 3.92, 0.88 2.2, 1.08 1.59 C1.28 0.98, 1.54 1.06, 2.08 0.95 C2.61 0.83, 3.76 1.08, 4.27 0.9 C4.77 0.72, 5.27 0.04, 5.11 -0.14 M0.37 1.3 C1.16 1.26, 3.49 0.88, 4.23 0.86 C4.96 0.85, 4.33 0.96, 4.78 1.22 C5.22 1.47, 6.77 1.53, 6.92 2.38 C7.06 3.24, 6.13 5.79, 5.63 6.34 C5.13 6.89, 4.8 5.86, 3.92 5.66 C3.05 5.45, 0.94 5.38, 0.39 5.12 C-0.16 4.85, 0.43 4.5, 0.63 4.08 C0.84 3.65, 1.19 3.07, 1.61 2.56 C2.03 2.06, 2.98 1.41, 3.18 1.04 C3.38 0.67, 2.9 0.58, 2.81 0.35" stroke="none" stroke-width="0" fill="#ced4da"></path><path d="M4.59 0.13 C5.23 0.32, 6.47 0.75, 6.65 1.37 C6.83 1.99, 5.9 3.14, 5.66 3.86 C5.41 4.57, 5.49 5.13, 5.19 5.65 C4.88 6.17, 4.51 6.83, 3.82 6.99 C3.14 7.16, 1.53 7.16, 1.05 6.65 C0.58 6.14, 1.15 4.62, 0.97 3.93 C0.79 3.24, -0.3 3.18, -0.04 2.48 C0.22 1.78, 1.86 0.06, 2.54 -0.26 C3.22 -0.59, 3.52 0.33, 4.05 0.53 C4.58 0.72, 5.65 0.87, 5.75 0.92 M0.91 0.83 C1.31 0.74, 1.46 0.92, 2.46 1.07 C3.47 1.22, 6.37 1.16, 6.95 1.74 C7.54 2.32, 6.39 4.03, 5.97 4.56 C5.54 5.1, 4.99 4.44, 4.41 4.95 C3.82 5.45, 2.98 7.4, 2.43 7.6 C1.88 7.81, 1.71 6.67, 1.09 6.18 C0.46 5.69, -0.99 5.29, -1.3 4.66 C-1.61 4.04, -1.46 3.2, -0.78 2.46 C-0.1 1.71, 2.58 0.64, 2.77 0.19 C2.95 -0.25, 0.51 -0.52, 0.33 -0.23" stroke="#495057" stroke-width="1" fill="none"></path></g><g stroke-linecap="round" transform="translate(380.5296587282785 104.21037492935722) rotate(0 10.56552619237334 4.346102972749293)"><path d="M0 0 L21.13 0 L21.13 8.69 L0 8.69" stroke="none" stroke-width="0" fill="#868e96"></path><path d="M0 0 C7.22 0, 14.44 0, 21.13 0 M0 0 C7.14 0, 14.28 0, 21.13 0 M21.13 0 C21.13 3.2, 21.13 6.39, 21.13 8.69 M21.13 0 C21.13 2.14, 21.13 4.28, 21.13 8.69 M21.13 8.69 C12.95 8.69, 4.76 8.69, 0 8.69 M21.13 8.69 C15.05 8.69, 8.98 8.69, 0 8.69 M0 8.69 C0 6.92, 0 5.15, 0 0 M0 8.69 C0 6.61, 0 4.53, 0 0" stroke="#868e96" stroke-width="1" fill="none"></path></g><g stroke-linecap="round"><g transform="translate(382.54075846069486 105.4262769411535) rotate(0 9.483891727685716 0.049963483663873376)"><path d="M1.41 -0.6 C7.71 -0.08, 14.95 -0.11, 16.6 0.7 M0.61 -0.23 C5.84 0.71, 10.04 -0.38, 18.36 0.62" stroke="#000000" stroke-width="1" fill="none"></path></g></g><g transform="translate(355.88750000000005 110.56158726601535) rotate(0 35.11250000000001 26.5)"><text x="35.1125" y="18.500000000000004" font-family="Virgil, Segoe UI Emoji" font-size="19.881777281041774px" fill="#000000" text-anchor="middle" style="white-space: pre;" direction="ltr">Auth &amp;</text><text x="35.1125" y="45.00000000000001" font-family="Virgil, Segoe UI Emoji" font-size="19.881777281041774px" fill="#000000" text-anchor="middle" style="white-space: pre;" direction="ltr"> IAM</text></g><g stroke-linecap="round"><g transform="translate(141.479716741517 115.10744121311893) rotate(0 97.90296458045503 -7.087138627986846)"><path d="M0.13 0.56 C33.01 -1.51, 164.2 -10.69, 197.06 -13.16 M-1.26 -0.19 C31.53 -2.51, 163.36 -12.61, 196.4 -14.74" stroke="#364fc7" stroke-width="1" fill="none"></path></g><g transform="translate(141.479716741517 115.10744121311893) rotate(0 97.90296458045503 -7.087138627986846)"><path d="M28.49 -10.71 C21.47 -6.82, 11.91 -6.23, 1.85 -0.47 M26.57 -12.39 C18.52 -8.24, 10 -2.94, 0.05 0.62" stroke="#364fc7" stroke-width="1" fill="none"></path></g><g transform="translate(141.479716741517 115.10744121311893) rotate(0 97.90296458045503 -7.087138627986846)"><path d="M29.9 9.76 C22.6 7.87, 12.65 2.68, 1.85 -0.47 M27.98 8.09 C19.54 5.46, 10.55 3.99, 0.05 0.62" stroke="#364fc7" stroke-width="1" fill="none"></path></g><g transform="translate(141.479716741517 115.10744121311893) rotate(0 97.90296458045503 -7.087138627986846)"><path d="M169.95 -1.59 C178.55 -4.66, 184.48 -10.97, 198.12 -15.77 M168.03 -3.27 C178.21 -7.51, 187.84 -10.29, 196.32 -14.68" stroke="#364fc7" stroke-width="1" fill="none"></path></g><g transform="translate(141.479716741517 115.10744121311893) rotate(0 97.90296458045503 -7.087138627986846)"><path d="M168.49 -22.06 C177.38 -19.35, 183.72 -19.88, 198.12 -15.77 M166.57 -23.74 C177.16 -21.21, 187.27 -17.22, 196.32 -14.68" stroke="#364fc7" stroke-width="1" fill="none"></path></g></g><g transform="translate(10 10) rotate(0 64.5 12.5)"><text x="0" y="18" font-family="Virgil, Segoe UI Emoji" font-size="20px" fill="#364fc7" text-anchor="start" style="white-space: pre;" direction="ltr">user signs up</text></g><g stroke-linecap="round" transform="translate(12.595881009378218 82.23148305011108) rotate(0 63.941917866069446 38.268516949888834)"><path d="M-1.88 1.73 C43.84 -1.72, 85.41 1.22, 126.53 -0.38 M0.94 0.05 C31.1 0.09, 64.99 0.18, 128.61 0.99 M128.92 -1.98 C128.71 31.3, 127.87 60.68, 126.53 75.98 M127.85 0.57 C128.38 20.72, 128.23 40.78, 127.87 76.58 M128.3 77.11 C91.2 77.54, 50.51 78.02, 0.98 75.44 M128.69 77.35 C102.61 74.81, 76.46 75.22, 0.84 77.18 M-0.64 77.54 C-1.47 56.5, 1.13 38.46, -0.33 -1.22 M-0.55 76.44 C-1.21 54.66, 0.02 30.9, -0.5 0.62" stroke="#000000" stroke-width="1" fill="none"></path></g><g stroke-linecap="round"><g transform="translate(11.520283258483005 92.94801744235536) rotate(0 64.33945425088336 0.1391552880406266)"><path d="M-1.13 1.04 C20.31 0.84, 108.05 -0.75, 129.81 -0.76 M0.48 0.54 C21.74 0.44, 107.96 0.6, 129.36 0.38" stroke="#000000" stroke-width="1" fill="none"></path></g></g><g stroke-linecap="round" transform="translate(17.083916478333094 86.5030528501199) rotate(0 2.5009765625 2.5009765625)"><path d="M5 2.5 C5 2.65, 4.99 2.79, 4.96 2.94 C4.94 3.08, 4.9 3.22, 4.85 3.36 C4.8 3.49, 4.74 3.63, 4.67 3.75 C4.59 3.88, 4.51 4, 4.42 4.11 C4.32 4.22, 4.22 4.32, 4.11 4.42 C4 4.51, 3.88 4.59, 3.75 4.67 C3.63 4.74, 3.49 4.8, 3.36 4.85 C3.22 4.9, 3.08 4.94, 2.94 4.96 C2.79 4.99, 2.65 5, 2.5 5 C2.36 5, 2.21 4.99, 2.07 4.96 C1.92 4.94, 1.78 4.9, 1.65 4.85 C1.51 4.8, 1.38 4.74, 1.25 4.67 C1.13 4.59, 1 4.51, 0.89 4.42 C0.78 4.32, 0.68 4.22, 0.59 4.11 C0.49 4, 0.41 3.88, 0.34 3.75 C0.26 3.63, 0.2 3.49, 0.15 3.36 C0.1 3.22, 0.06 3.08, 0.04 2.94 C0.01 2.79, 0 2.65, 0 2.5 C0 2.36, 0.01 2.21, 0.04 2.07 C0.06 1.92, 0.1 1.78, 0.15 1.65 C0.2 1.51, 0.26 1.38, 0.34 1.25 C0.41 1.13, 0.49 1, 0.59 0.89 C0.68 0.78, 0.78 0.68, 0.89 0.59 C1 0.49, 1.13 0.41, 1.25 0.34 C1.38 0.26, 1.51 0.2, 1.65 0.15 C1.78 0.1, 1.92 0.06, 2.07 0.04 C2.21 0.01, 2.36 0, 2.5 0 C2.65 0, 2.79 0.01, 2.94 0.04 C3.08 0.06, 3.22 0.1, 3.36 0.15 C3.49 0.2, 3.63 0.26, 3.75 0.34 C3.88 0.41, 4 0.49, 4.11 0.59 C4.22 0.68, 4.32 0.78, 4.42 0.89 C4.51 1, 4.59 1.13, 4.67 1.25 C4.74 1.38, 4.8 1.51, 4.85 1.65 C4.9 1.78, 4.94 1.92, 4.96 2.07 C4.99 2.21, 5 2.43, 5 2.5 C5.01 2.57, 5.01 2.43, 5 2.5" stroke="none" stroke-width="0" fill="#fa5252"></path><path d="M5 2.5 C5 2.65, 4.99 2.79, 4.96 2.94 C4.94 3.08, 4.9 3.22, 4.85 3.36 C4.8 3.49, 4.74 3.63, 4.67 3.75 C4.59 3.88, 4.51 4, 4.42 4.11 C4.32 4.22, 4.22 4.32, 4.11 4.42 C4 4.51, 3.88 4.59, 3.75 4.67 C3.63 4.74, 3.49 4.8, 3.36 4.85 C3.22 4.9, 3.08 4.94, 2.94 4.96 C2.79 4.99, 2.65 5, 2.5 5 C2.36 5, 2.21 4.99, 2.07 4.96 C1.92 4.94, 1.78 4.9, 1.65 4.85 C1.51 4.8, 1.38 4.74, 1.25 4.67 C1.13 4.59, 1 4.51, 0.89 4.42 C0.78 4.32, 0.68 4.22, 0.59 4.11 C0.49 4, 0.41 3.88, 0.34 3.75 C0.26 3.63, 0.2 3.49, 0.15 3.36 C0.1 3.22, 0.06 3.08, 0.04 2.94 C0.01 2.79, 0 2.65, 0 2.5 C0 2.36, 0.01 2.21, 0.04 2.07 C0.06 1.92, 0.1 1.78, 0.15 1.65 C0.2 1.51, 0.26 1.38, 0.34 1.25 C0.41 1.13, 0.49 1, 0.59 0.89 C0.68 0.78, 0.78 0.68, 0.89 0.59 C1 0.49, 1.13 0.41, 1.25 0.34 C1.38 0.26, 1.51 0.2, 1.65 0.15 C1.78 0.1, 1.92 0.06, 2.07 0.04 C2.21 0.01, 2.36 0, 2.5 0 C2.65 0, 2.79 0.01, 2.94 0.04 C3.08 0.06, 3.22 0.1, 3.36 0.15 C3.49 0.2, 3.63 0.26, 3.75 0.34 C3.88 0.41, 4 0.49, 4.11 0.59 C4.22 0.68, 4.32 0.78, 4.42 0.89 C4.51 1, 4.59 1.13, 4.67 1.25 C4.74 1.38, 4.8 1.51, 4.85 1.65 C4.9 1.78, 4.94 1.92, 4.96 2.07 C4.99 2.21, 5 2.43, 5 2.5 C5.01 2.57, 5.01 2.43, 5 2.5" stroke="#000000" stroke-width="1" fill="none"></path></g><g stroke-linecap="round" transform="translate(27.346611790833094 86.5030528501199) rotate(0 2.5009765625 2.5009765625)"><path d="M5 2.5 C5 2.65, 4.99 2.79, 4.96 2.94 C4.94 3.08, 4.9 3.22, 4.85 3.36 C4.8 3.49, 4.74 3.63, 4.67 3.75 C4.59 3.88, 4.51 4, 4.42 4.11 C4.32 4.22, 4.22 4.32, 4.11 4.42 C4 4.51, 3.88 4.59, 3.75 4.67 C3.63 4.74, 3.49 4.8, 3.36 4.85 C3.22 4.9, 3.08 4.94, 2.94 4.96 C2.79 4.99, 2.65 5, 2.5 5 C2.36 5, 2.21 4.99, 2.07 4.96 C1.92 4.94, 1.78 4.9, 1.65 4.85 C1.51 4.8, 1.38 4.74, 1.25 4.67 C1.13 4.59, 1 4.51, 0.89 4.42 C0.78 4.32, 0.68 4.22, 0.59 4.11 C0.49 4, 0.41 3.88, 0.34 3.75 C0.26 3.63, 0.2 3.49, 0.15 3.36 C0.1 3.22, 0.06 3.08, 0.04 2.94 C0.01 2.79, 0 2.65, 0 2.5 C0 2.36, 0.01 2.21, 0.04 2.07 C0.06 1.92, 0.1 1.78, 0.15 1.65 C0.2 1.51, 0.26 1.38, 0.34 1.25 C0.41 1.13, 0.49 1, 0.59 0.89 C0.68 0.78, 0.78 0.68, 0.89 0.59 C1 0.49, 1.13 0.41, 1.25 0.34 C1.38 0.26, 1.51 0.2, 1.65 0.15 C1.78 0.1, 1.92 0.06, 2.07 0.04 C2.21 0.01, 2.36 0, 2.5 0 C2.65 0, 2.79 0.01, 2.94 0.04 C3.08 0.06, 3.22 0.1, 3.36 0.15 C3.49 0.2, 3.63 0.26, 3.75 0.34 C3.88 0.41, 4 0.49, 4.11 0.59 C4.22 0.68, 4.32 0.78, 4.42 0.89 C4.51 1, 4.59 1.13, 4.67 1.25 C4.74 1.38, 4.8 1.51, 4.85 1.65 C4.9 1.78, 4.94 1.92, 4.96 2.07 C4.99 2.21, 5 2.43, 5 2.5 C5.01 2.57, 5.01 2.43, 5 2.5" stroke="none" stroke-width="0" fill="#fab005"></path><path d="M5 2.5 C5 2.65, 4.99 2.79, 4.96 2.94 C4.94 3.08, 4.9 3.22, 4.85 3.36 C4.8 3.49, 4.74 3.63, 4.67 3.75 C4.59 3.88, 4.51 4, 4.42 4.11 C4.32 4.22, 4.22 4.32, 4.11 4.42 C4 4.51, 3.88 4.59, 3.75 4.67 C3.63 4.74, 3.49 4.8, 3.36 4.85 C3.22 4.9, 3.08 4.94, 2.94 4.96 C2.79 4.99, 2.65 5, 2.5 5 C2.36 5, 2.21 4.99, 2.07 4.96 C1.92 4.94, 1.78 4.9, 1.65 4.85 C1.51 4.8, 1.38 4.74, 1.25 4.67 C1.13 4.59, 1 4.51, 0.89 4.42 C0.78 4.32, 0.68 4.22, 0.59 4.11 C0.49 4, 0.41 3.88, 0.34 3.75 C0.26 3.63, 0.2 3.49, 0.15 3.36 C0.1 3.22, 0.06 3.08, 0.04 2.94 C0.01 2.79, 0 2.65, 0 2.5 C0 2.36, 0.01 2.21, 0.04 2.07 C0.06 1.92, 0.1 1.78, 0.15 1.65 C0.2 1.51, 0.26 1.38, 0.34 1.25 C0.41 1.13, 0.49 1, 0.59 0.89 C0.68 0.78, 0.78 0.68, 0.89 0.59 C1 0.49, 1.13 0.41, 1.25 0.34 C1.38 0.26, 1.51 0.2, 1.65 0.15 C1.78 0.1, 1.92 0.06, 2.07 0.04 C2.21 0.01, 2.36 0, 2.5 0 C2.65 0, 2.79 0.01, 2.94 0.04 C3.08 0.06, 3.22 0.1, 3.36 0.15 C3.49 0.2, 3.63 0.26, 3.75 0.34 C3.88 0.41, 4 0.49, 4.11 0.59 C4.22 0.68, 4.32 0.78, 4.42 0.89 C4.51 1, 4.59 1.13, 4.67 1.25 C4.74 1.38, 4.8 1.51, 4.85 1.65 C4.9 1.78, 4.94 1.92, 4.96 2.07 C4.99 2.21, 5 2.43, 5 2.5 C5.01 2.57, 5.01 2.43, 5 2.5" stroke="#000000" stroke-width="1" fill="none"></path></g><g stroke-linecap="round" transform="translate(38.06002825717928 86.95377400396609) rotate(0 2.5009765625 2.5009765625)"><path d="M5 2.5 C5 2.65, 4.99 2.79, 4.96 2.94 C4.94 3.08, 4.9 3.22, 4.85 3.36 C4.8 3.49, 4.74 3.63, 4.67 3.75 C4.59 3.88, 4.51 4, 4.42 4.11 C4.32 4.22, 4.22 4.32, 4.11 4.42 C4 4.51, 3.88 4.59, 3.75 4.67 C3.63 4.74, 3.49 4.8, 3.36 4.85 C3.22 4.9, 3.08 4.94, 2.94 4.96 C2.79 4.99, 2.65 5, 2.5 5 C2.36 5, 2.21 4.99, 2.07 4.96 C1.92 4.94, 1.78 4.9, 1.65 4.85 C1.51 4.8, 1.38 4.74, 1.25 4.67 C1.13 4.59, 1 4.51, 0.89 4.42 C0.78 4.32, 0.68 4.22, 0.59 4.11 C0.49 4, 0.41 3.88, 0.34 3.75 C0.26 3.63, 0.2 3.49, 0.15 3.36 C0.1 3.22, 0.06 3.08, 0.04 2.94 C0.01 2.79, 0 2.65, 0 2.5 C0 2.36, 0.01 2.21, 0.04 2.07 C0.06 1.92, 0.1 1.78, 0.15 1.65 C0.2 1.51, 0.26 1.38, 0.34 1.25 C0.41 1.13, 0.49 1, 0.59 0.89 C0.68 0.78, 0.78 0.68, 0.89 0.59 C1 0.49, 1.13 0.41, 1.25 0.34 C1.38 0.26, 1.51 0.2, 1.65 0.15 C1.78 0.1, 1.92 0.06, 2.07 0.04 C2.21 0.01, 2.36 0, 2.5 0 C2.65 0, 2.79 0.01, 2.94 0.04 C3.08 0.06, 3.22 0.1, 3.36 0.15 C3.49 0.2, 3.63 0.26, 3.75 0.34 C3.88 0.41, 4 0.49, 4.11 0.59 C4.22 0.68, 4.32 0.78, 4.42 0.89 C4.51 1, 4.59 1.13, 4.67 1.25 C4.74 1.38, 4.8 1.51, 4.85 1.65 C4.9 1.78, 4.94 1.92, 4.96 2.07 C4.99 2.21, 5 2.43, 5 2.5 C5.01 2.57, 5.01 2.43, 5 2.5" stroke="none" stroke-width="0" fill="#40c057"></path><path d="M5 2.5 C5 2.65, 4.99 2.79, 4.96 2.94 C4.94 3.08, 4.9 3.22, 4.85 3.36 C4.8 3.49, 4.74 3.63, 4.67 3.75 C4.59 3.88, 4.51 4, 4.42 4.11 C4.32 4.22, 4.22 4.32, 4.11 4.42 C4 4.51, 3.88 4.59, 3.75 4.67 C3.63 4.74, 3.49 4.8, 3.36 4.85 C3.22 4.9, 3.08 4.94, 2.94 4.96 C2.79 4.99, 2.65 5, 2.5 5 C2.36 5, 2.21 4.99, 2.07 4.96 C1.92 4.94, 1.78 4.9, 1.65 4.85 C1.51 4.8, 1.38 4.74, 1.25 4.67 C1.13 4.59, 1 4.51, 0.89 4.42 C0.78 4.32, 0.68 4.22, 0.59 4.11 C0.49 4, 0.41 3.88, 0.34 3.75 C0.26 3.63, 0.2 3.49, 0.15 3.36 C0.1 3.22, 0.06 3.08, 0.04 2.94 C0.01 2.79, 0 2.65, 0 2.5 C0 2.36, 0.01 2.21, 0.04 2.07 C0.06 1.92, 0.1 1.78, 0.15 1.65 C0.2 1.51, 0.26 1.38, 0.34 1.25 C0.41 1.13, 0.49 1, 0.59 0.89 C0.68 0.78, 0.78 0.68, 0.89 0.59 C1 0.49, 1.13 0.41, 1.25 0.34 C1.38 0.26, 1.51 0.2, 1.65 0.15 C1.78 0.1, 1.92 0.06, 2.07 0.04 C2.21 0.01, 2.36 0, 2.5 0 C2.65 0, 2.79 0.01, 2.94 0.04 C3.08 0.06, 3.22 0.1, 3.36 0.15 C3.49 0.2, 3.63 0.26, 3.75 0.34 C3.88 0.41, 4 0.49, 4.11 0.59 C4.22 0.68, 4.32 0.78, 4.42 0.89 C4.51 1, 4.59 1.13, 4.67 1.25 C4.74 1.38, 4.8 1.51, 4.85 1.65 C4.9 1.78, 4.94 1.92, 4.96 2.07 C4.99 2.21, 5 2.43, 5 2.5 C5.01 2.57, 5.01 2.43, 5 2.5" stroke="#000000" stroke-width="1" fill="none"></path></g><g stroke-opacity="0.9" fill-opacity="0.9" stroke-linecap="round" transform="translate(54.0870892468065 103.00614288198193) rotate(0 21.360101269687846 21.360101269687874)"><path d="M28.92 0.77 C33.32 1.73, 37.91 5.45, 40.04 9.51 C42.18 13.57, 42.58 20.51, 41.75 25.12 C40.93 29.72, 38.48 34.24, 35.08 37.16 C31.68 40.08, 25.74 42.38, 21.37 42.63 C16.99 42.88, 12.44 41.51, 8.86 38.67 C5.28 35.83, 1.04 30.07, -0.11 25.58 C-1.27 21.08, -0.43 15.86, 1.93 11.7 C4.3 7.53, 9.17 1.98, 14.07 0.59 C18.98 -0.8, 27.72 2.56, 31.36 3.38 C34.99 4.19, 35.93 5.24, 35.88 5.45 M15.41 1.05 C19.6 -0.19, 25.46 0.52, 29.5 2.35 C33.55 4.18, 37.68 7.87, 39.68 12.04 C41.68 16.21, 42.55 22.76, 41.52 27.39 C40.48 32.01, 37.06 36.99, 33.5 39.77 C29.93 42.54, 24.55 44.77, 20.14 44.05 C15.73 43.32, 10.3 39.02, 7.02 35.41 C3.75 31.81, 0.9 27.02, 0.5 22.44 C0.09 17.86, 1.94 11.46, 4.6 7.93 C7.26 4.4, 14.66 2.62, 16.47 1.26 C18.29 -0.09, 15.49 -0.38, 15.5 -0.22" stroke="none" stroke-width="0" fill="#04aaf7"></path><path d="M14.78 1.11 C18.98 -0.5, 25.79 -0.2, 29.83 1.42 C33.88 3.04, 36.81 6.86, 39.06 10.85 C41.3 14.84, 43.87 20.69, 43.3 25.36 C42.72 30.03, 39.17 36.05, 35.63 38.86 C32.09 41.68, 26.67 42.39, 22.07 42.26 C17.46 42.13, 11.78 40.89, 7.99 38.09 C4.19 35.28, 0.04 29.99, -0.7 25.42 C-1.45 20.84, 0.06 14.98, 3.53 10.64 C7 6.3, 16.47 1.06, 20.11 -0.63 C23.76 -2.32, 25.35 0.02, 25.4 0.49 M22.17 0.21 C26.59 -0.21, 32.74 1.92, 36.11 4.78 C39.49 7.63, 41.68 12.81, 42.4 17.34 C43.13 21.87, 42.66 27.89, 40.47 31.96 C38.29 36.03, 33.42 40.05, 29.28 41.75 C25.14 43.45, 20.09 43.57, 15.64 42.16 C11.19 40.75, 5.02 37.47, 2.59 33.3 C0.15 29.13, 0.44 21.9, 1 17.14 C1.56 12.38, 2.81 7.39, 5.96 4.74 C9.11 2.08, 17.19 1.7, 19.91 1.21 C22.63 0.73, 22.26 1.42, 22.27 1.82" stroke="#000000" stroke-width="1" fill="none"></path></g><g stroke-linecap="round"><g transform="translate(81.1652533087821 119.23049494643959) rotate(0 -3.4669568227483865 6.479860744560767)" fill-rule="evenodd"><path d="M0 0 L-1.83 -0.41 L-7.57 -6.27 L-9.75 -6.1 L-11.36 -4.35 L-12.61 2.37 L-11.27 6.74 L-17.42 8.89 L-18 11.42 L-17.2 13.64 L-15.01 14.04 L-12.38 13.35 L-8.7 9.48 L-3.62 17.87 L-1.49 19.38 L-0.42 18.17 L-3.78 4.8 L-1.52 3.64 L1.39 4.35 L3.16 5.87 L6.21 6.29 L9.24 5.87 L10.81 3.22 L10.8 0.63 L4.22 1.11 L5.49 -5.76 L4.23 -6.26 L2.47 -5.35 L-0.24 -0.92 L0 0" stroke="none" stroke-width="0" fill="#40c057" fill-rule="evenodd"></path><path d="M0 0 C-0.31 -0.07, -0.57 0.63, -1.83 -0.41 C-3.09 -1.46, -5.98 -5.62, -7.57 -6.27 C-9.16 -6.93, -10.52 -5.79, -11.36 -4.35 C-12.2 -2.91, -12.63 0.53, -12.61 2.37 C-12.6 4.22, -10.47 5.65, -11.27 6.74 C-12.07 7.83, -16.44 7.74, -17.42 8.89 C-18.41 10.04, -18.04 12.9, -17.2 13.64 C-16.36 14.39, -13.8 14.04, -12.38 13.35 C-10.96 12.66, -10.16 8.72, -8.7 9.48 C-7.24 10.23, -5 16.42, -3.62 17.87 C-2.24 19.32, -0.39 20.35, -0.42 18.17 C-0.44 15.99, -4.08 7.1, -3.78 4.8 C-3.48 2.5, 0.23 4.17, 1.39 4.35 C2.54 4.53, 1.85 5.61, 3.16 5.87 C4.47 6.12, 7.96 6.74, 9.24 5.87 C10.51 5, 11.64 1.43, 10.8 0.63 C9.97 -0.16, 5.11 2.18, 4.22 1.11 C3.34 0.04, 5.78 -4.68, 5.49 -5.76 C5.19 -6.84, 3.43 -6.15, 2.47 -5.35 C1.52 -4.54, 0.17 -1.81, -0.24 -0.92 C-0.65 -0.03, -0.04 -0.15, 0 0 M0 0 C-0.31 -0.07, -0.57 0.63, -1.83 -0.41 C-3.09 -1.46, -5.98 -5.62, -7.57 -6.27 C-9.16 -6.93, -10.52 -5.79, -11.36 -4.35 C-12.2 -2.91, -12.63 0.53, -12.61 2.37 C-12.6 4.22, -10.47 5.65, -11.27 6.74 C-12.07 7.83, -16.44 7.74, -17.42 8.89 C-18.41 10.04, -18.04 12.9, -17.2 13.64 C-16.36 14.39, -13.8 14.04, -12.38 13.35 C-10.96 12.66, -10.16 8.72, -8.7 9.48 C-7.24 10.23, -5 16.42, -3.62 17.87 C-2.24 19.32, -0.39 20.35, -0.42 18.17 C-0.44 15.99, -4.08 7.1, -3.78 4.8 C-3.48 2.5, 0.23 4.17, 1.39 4.35 C2.54 4.53, 1.85 5.61, 3.16 5.87 C4.47 6.12, 7.96 6.74, 9.24 5.87 C10.51 5, 11.64 1.43, 10.8 0.63 C9.97 -0.16, 5.11 2.18, 4.22 1.11 C3.34 0.04, 5.78 -4.68, 5.49 -5.76 C5.19 -6.84, 3.43 -6.15, 2.47 -5.35 C1.52 -4.54, 0.17 -1.81, -0.24 -0.92 C-0.65 -0.03, -0.04 -0.15, 0 0" stroke="#087f5b" stroke-width="1" fill="none"></path></g></g><g stroke-linecap="round"><g stroke-opacity="0.9" fill-opacity="0.9" transform="translate(55.14615172083404 123.96901644516305) rotate(0 21.544273006460003 -0.3940054154629138)"><path d="M-0.81 -0.23 C6.01 -0.29, 34.37 0.38, 41.5 0.6 M0.96 -1.39 C8.14 -1.29, 37.2 -1.33, 43.9 -1.2" stroke="#000000" stroke-width="1" fill="none"></path></g></g><g stroke-linecap="round"><g stroke-opacity="0.9" fill-opacity="0.9" transform="translate(60.24148075060839 108.53448751819684) rotate(0 14.659303301924297 2.6275724513134264)"><path d="M0 0 C0.13 0.38, 0.09 1.58, 0.77 2.28 C1.46 2.97, 2.81 3.68, 4.1 4.19 C5.4 4.7, 6.64 5.13, 8.54 5.34 C10.43 5.55, 12.97 5.55, 15.48 5.45 C17.99 5.34, 21.44 5.28, 23.58 4.71 C25.72 4.14, 27.36 2.86, 28.32 2.03 C29.27 1.2, 29.15 0.12, 29.32 -0.26 M0 0 C0.13 0.38, 0.09 1.58, 0.77 2.28 C1.46 2.97, 2.81 3.68, 4.1 4.19 C5.4 4.7, 6.64 5.13, 8.54 5.34 C10.43 5.55, 12.97 5.55, 15.48 5.45 C17.99 5.34, 21.44 5.28, 23.58 4.71 C25.72 4.14, 27.36 2.86, 28.32 2.03 C29.27 1.2, 29.15 0.12, 29.32 -0.26" stroke="#000000" stroke-width="1" fill="none"></path></g></g><g stroke-opacity="0.9" fill-opacity="0.9" stroke-linecap="round" transform="translate(68.31539667452785 101.62361325238925) rotate(0 7.764217176558077 22.41115194065472)"><path d="M6.47 -0.01 C8.05 -0.51, 11.81 1.55, 13.41 4.63 C15.01 7.71, 15.7 13.86, 16.07 18.45 C16.43 23.05, 16.41 28.03, 15.61 32.22 C14.82 36.41, 13.16 41.57, 11.31 43.6 C9.45 45.63, 6.06 45.88, 4.47 44.4 C2.89 42.92, 2.49 38.95, 1.78 34.7 C1.07 30.45, 0.13 23.76, 0.2 18.91 C0.28 14.05, 0.77 8.7, 2.22 5.56 C3.66 2.42, 7.61 0.72, 8.86 0.08 C10.1 -0.55, 9.69 1.24, 9.68 1.75 M8.36 0.05 C9.8 0.12, 12.36 3.06, 13.6 6.46 C14.84 9.87, 15.48 15.61, 15.8 20.46 C16.11 25.3, 16.55 31.45, 15.49 35.53 C14.44 39.61, 11.17 43.83, 9.48 44.92 C7.79 46.01, 7.04 44.26, 5.35 42.08 C3.67 39.89, 0.41 35.78, -0.63 31.81 C-1.68 27.83, -1.74 22.59, -0.9 18.24 C-0.06 13.89, 3.07 8.48, 4.41 5.7 C5.75 2.91, 6.6 2.19, 7.15 1.53 C7.71 0.87, 7.4 1.78, 7.74 1.76" stroke="#000000" stroke-width="1" fill="none"></path></g><g stroke-linecap="round"><g stroke-opacity="0.9" fill-opacity="0.9" transform="translate(61.75743226023428 140.27157957663775) rotate(0 14.659303301924297 -2.712622320327597)"><path d="M0 0 C0.68 -0.72, 2.68 -3.4, 4.1 -4.32 C5.53 -5.24, 6.64 -5.3, 8.54 -5.52 C10.43 -5.73, 12.97 -5.73, 15.48 -5.63 C17.99 -5.52, 21.44 -5.45, 23.58 -4.86 C25.72 -4.28, 27.36 -2.95, 28.32 -2.1 C29.27 -1.24, 29.15 -0.12, 29.32 0.27 M0 0 C0.68 -0.72, 2.68 -3.4, 4.1 -4.32 C5.53 -5.24, 6.64 -5.3, 8.54 -5.52 C10.43 -5.73, 12.97 -5.73, 15.48 -5.63 C17.99 -5.52, 21.44 -5.45, 23.58 -4.86 C25.72 -4.28, 27.36 -2.95, 28.32 -2.1 C29.27 -1.24, 29.15 -0.12, 29.32 0.27" stroke="#000000" stroke-width="1" fill="none"></path></g></g><g transform="translate(14.5 40.5) rotate(0 57 12.5)"><text x="0" y="18" font-family="Virgil, Segoe UI Emoji" font-size="20px" fill="#364fc7" text-anchor="start" style="white-space: pre;" direction="ltr">user logs in</text></g><g transform="translate(325 19) rotate(0 60.5 12.5)"><text x="0" y="18" font-family="Virgil, Segoe UI Emoji" font-size="20px" fill="#364fc7" text-anchor="start" style="white-space: pre;" direction="ltr">AWS Cognito</text></g></svg>